<svg xmlns="http://www.w3.org/2000/svg" xmlns:svg="http://www.w3.org/2000/svg" id="svg5248" width="100%" height="100%" version="1.1" viewBox="0 0 16 16"><metadata id="metadata5260"/><path id="rect2993" fill="#f2535e" fill-opacity="1" stroke="none" stroke-opacity="1" stroke-width=".935" d="m 37.07795,-1.3496095 c -4.432,0 -8,3.568 -8,8 0,4.4320005 3.568,8.0000005 8,8.0000005 4.432,0 8,-3.568 8,-8.0000005 0,-4.432 -3.568,-8 -8,-8 z m 0,1.00000003 c 3.878,0 7,3.12199997 7,6.99999997 0,3.8780005 -3.122,7.0000005 -7,7.0000005 -3.878,0 -7,-3.122 -7,-7.0000005 0,-3.878 3.122,-6.99999997 7,-6.99999997 z" opacity="1"/><rect id="rect4717" width="15" height="15" x=".5" y=".5" fill="#fafafa" fill-opacity="1" stroke="#9aaaec" stroke-dasharray="none" stroke-linecap="butt" stroke-linejoin="miter" stroke-miterlimit="4" stroke-opacity="1" stroke-width="1" opacity="1" rx=".989" ry=".989"/></svg>