<svg xmlns="http://www.w3.org/2000/svg" xmlns:svg="http://www.w3.org/2000/svg" id="svg2" width="100%" height="100%" version="1.1" viewBox="0 0 16 16"><metadata id="metadata18"/><circle id="path4135" cx="8" cy="8" r="6" fill="#fafafa" fill-opacity="1" stroke="none" stroke-dasharray="none" stroke-linecap="round" stroke-linejoin="miter" stroke-miterlimit="4" stroke-opacity="1" stroke-width="2.268" opacity="1"/><path id="path4181" fill="#000" fill-opacity="1" stroke="none" stroke-dasharray="none" stroke-linecap="butt" stroke-linejoin="miter" stroke-miterlimit="4" stroke-opacity="1" stroke-width="1.5" d="M 8.0000002,0 A 8,8 0 0 0 -2e-7,8 8,8 0 0 0 8.0000002,16 8,8 0 0 0 16,8 8,8 0 0 0 8.0000002,0 Z m 0,2 A 6,6 0 0 1 14,8 6,6 0 0 1 8.0000002,14 6,6 0 0 1 1.9999998,8 6,6 0 0 1 8.0000002,2 Z" opacity=".26"/><path id="path12" fill="#000" fill-opacity="1" d="M 11,8 C 11,9.6568542 9.6568542,11 8,11 6.3431458,11 5,9.6568542 5,8 5,6.3431458 6.3431458,5 8,5 c 1.6568542,0 3,1.3431458 3,3 z" opacity=".27"/></svg>