<svg xmlns="http://www.w3.org/2000/svg" xmlns:svg="http://www.w3.org/2000/svg" id="svg2" width="100%" height="100%" version="1.1" viewBox="0 0 16 16"><metadata id="metadata16"/><g id="g4" transform="translate(0 -1036.3622)"><circle id="path4137" cx="8" cy="1044.362" r="8" fill="#fafafa" fill-opacity="1" stroke="none" stroke-dasharray="none" stroke-linecap="round" stroke-linejoin="miter" stroke-miterlimit="4" stroke-opacity="1" stroke-width="2.268" d="m 16,1044.3622 c 0,4.4183 -3.581722,8 -8,8 -4.418278,0 -8,-3.5817 -8,-8 0,-4.4183 3.581722,-8 8,-8 4.418278,0 8,3.5817 8,8 z" opacity="1"/><path id="path4181" fill="#9aaaec" fill-opacity="1" stroke="none" stroke-dasharray="none" stroke-linecap="butt" stroke-linejoin="miter" stroke-miterlimit="4" stroke-opacity="1" stroke-width="1.5" d="m 8,1036.3622 a 8,8 0 0 0 -7.99999985,8 8,8 0 0 0 7.99999985,8 8,8 0 0 0 8,-8 8,8 0 0 0 -7.9999998,-8 z m 0,2 a 6,6 0 0 1 6,6 6,6 0 0 1 -5.9999999,6 6,6 0 0 1 -6,-6 6,6 0 0 1 6,-6 z" opacity="1"/><rect id="rect5815" width="8" height="2" x="4" y="1043.362" fill="#9aaaec" fill-opacity="1" stroke="none" stroke-dasharray="none" stroke-linecap="round" stroke-linejoin="miter" stroke-miterlimit="4" stroke-opacity="1" stroke-width="2.268" opacity="1" rx="0" ry="0"/></g></svg>