<svg xmlns="http://www.w3.org/2000/svg" xmlns:svg="http://www.w3.org/2000/svg" id="svg2" width="100%" height="100%" version="1.1" viewBox="0 0 16 16"><metadata id="metadata18"/><circle id="path4135" cx="8" cy="8" r="6" fill="#fafafa" fill-opacity="1" stroke="none" stroke-dasharray="none" stroke-linecap="round" stroke-linejoin="miter" stroke-miterlimit="4" stroke-opacity="1" stroke-width="2.268" opacity="1"/><path id="path4181" fill="#000" fill-opacity="1" stroke="none" stroke-dasharray="none" stroke-linecap="butt" stroke-linejoin="miter" stroke-miterlimit="4" stroke-opacity="1" stroke-width="1.5" d="M 8.0000001,0 A 8,8 0 0 0 1.5e-7,8 8,8 0 0 0 8.0000001,16 8,8 0 0 0 16,8 8,8 0 0 0 8.0000002,0 Z m 0,2 A 6,6 0 0 1 14,8 a 6,6 0 0 1 -5.9999998,6 6,6 0 0 1 -6,-6 6,6 0 0 1 6,-6 z" opacity=".26"/><rect id="rect5815" width="8" height="2" x="4" y="7" fill="#000" fill-opacity="1" stroke="none" stroke-dasharray="none" stroke-linecap="round" stroke-linejoin="miter" stroke-miterlimit="4" stroke-opacity="1" stroke-width="2.268" opacity=".26" rx="0" ry="0"/></svg>