<svg xmlns="http://www.w3.org/2000/svg" xmlns:svg="http://www.w3.org/2000/svg" id="svg2" width="100%" height="100%" version="1.1" viewBox="0 0 16 16"><metadata id="metadata16"/><circle id="path4194" cx="8" cy="8" r="6.274" fill="#fafafa" fill-opacity="1" stroke="none" stroke-dasharray="none" stroke-linecap="butt" stroke-linejoin="miter" stroke-miterlimit="4" stroke-opacity="1" stroke-width="1.5" opacity="1"/><path id="path4186" fill="#25aedf" fill-opacity="1" d="M 11,8 C 11,9.6569 9.656854,11 8,11 6.343146,11 5,9.6569 5,8 5,6.3431 6.343146,5 8,5 c 1.656854,0 3,1.3431 3,3 z"/><path id="path4181" fill="#25aedf" fill-opacity="1" stroke="none" stroke-dasharray="none" stroke-linecap="butt" stroke-linejoin="miter" stroke-miterlimit="4" stroke-opacity="1" stroke-width="1.5" d="M 8 0 A 8 8 0 0 0 0 8 A 8 8 0 0 0 8 16 A 8 8 0 0 0 16 8 A 8 8 0 0 0 8 0 z M 8 2 A 6 6 0 0 1 14 8 A 6 6 0 0 1 8 14 A 6 6 0 0 1 2 8 A 6 6 0 0 1 8 2 z" opacity="1"/></svg>