/* XPM */
static char * close_pressed_xpm[] = {
"16 16 20 1",
" 	c None",
".	c #F9FDFF",
"+	c #0099D2",
"@	c #29C5FF",
"#	c #5DD3FF",
"$	c #BFEDFF",
"%	c #C4EFFF",
"&	c #19C1FF",
"*	c #49CEFE",
"=	c #13BFFE",
"-	c #009ED8",
";	c #00BBFF",
">	c #00A8E6",
",	c #20C3FF",
"'	c #06BCFF",
")	c #00B5F8",
"!	c #30C7FF",
"~	c #00A2DE",
"{	c #00ABEA",
"]	c #00BAFE",
"................",
"................",
"................",
"................",
"....+@....#+....",
"....@+@$%&+*....",
".....=-;>-,.....",
"......'--;......",
"......>+-)......",
".....!+~{-*.....",
"....#+;..#-=....",
"....-#....]+....",
"................",
"................",
"................",
"................"};
