/* XPM */
static char * close_prelight_xpm[] = {
"16 16 24 1",
" 	c None",
".	c #FDFEFE",
"+	c #15ADE4",
"@	c #1299CB",
"#	c #DEF3FB",
"$	c #EAF8FD",
"%	c #4FC4EE",
"&	c #14A3D7",
"*	c #15B0E8",
"=	c #108AB7",
"-	c #1085AF",
";	c #EEF9FD",
">	c #E7F7FC",
",	c #1AB2E9",
"'	c #F0FAFD",
")	c #1083AD",
"!	c #DFF4FC",
"~	c #D6F1FB",
"{	c #DAF2FB",
"]	c #E5F6FC",
"^	c #139CCE",
"/	c #139FD2",
"(	c #21B4EA",
"_	c #18B1E9",
"................",
"................",
"................",
"................",
"....+@#..$%&....",
"....*=-;>-=,....",
"....'-=))=-!....",
".....$-==)~.....",
".....$-==)~.....",
"....$-=))=-$....",
"....,=){])=^....",
"....&/....(_....",
"................",
"................",
"................",
"................"};
