/* XPM */
static char * hide_prelight_xpm[] = {
"16 16 3 1",
" 	c None",
".	c #FDFEFF",
"+	c #0092C8",
"................",
"................",
"................",
"................",
"................",
"................",
"................",
"....++++++++....",
"....++++++++....",
"................",
"................",
"................",
"................",
"................",
"................",
"................"};
