/* XPM */
static char * hide_pressed_xpm[] = {
"16 16 3 1",
" 	c None",
".	c #FDFEFE",
"+	c #0F79A0",
"................",
"................",
"................",
"................",
"................",
"................",
"................",
"....++++++++....",
"....++++++++....",
"................",
"................",
"................",
"................",
"................",
"................",
"................"};
